<mxfile host="app.diagrams.net" modified="2024-03-02T18:50:51.800Z" agent="Mozilla/5.0 (Windows NT 10.0; Win64; x64) AppleWebKit/537.36 (KHTML, like Gecko) Chrome/122.0.0.0 Safari/537.36" etag="85a_yjzoNofnnSRlq_YM" version="23.1.8" type="github">
  <diagram name="Página-1" id="zqDcufJNqj2IekqlWoUW">
    <mxGraphModel dx="707" dy="483" grid="1" gridSize="10" guides="1" tooltips="1" connect="1" arrows="1" fold="1" page="1" pageScale="1" pageWidth="827" pageHeight="1169" math="0" shadow="0">
      <root>
        <mxCell id="0" />
        <mxCell id="1" parent="0" />
        <mxCell id="k65Ih3bsVJZd8CG2GF2q-1" value="Aluno" style="rounded=0;whiteSpace=wrap;html=1;" vertex="1" parent="1">
          <mxGeometry x="520" y="100" width="80" height="40" as="geometry" />
        </mxCell>
        <mxCell id="k65Ih3bsVJZd8CG2GF2q-2" value="Turma" style="rounded=0;whiteSpace=wrap;html=1;" vertex="1" parent="1">
          <mxGeometry x="200" y="100" width="80" height="40" as="geometry" />
        </mxCell>
        <mxCell id="k65Ih3bsVJZd8CG2GF2q-3" value="contém" style="rhombus;whiteSpace=wrap;html=1;" vertex="1" parent="1">
          <mxGeometry x="370" y="95" width="70" height="50" as="geometry" />
        </mxCell>
        <mxCell id="k65Ih3bsVJZd8CG2GF2q-4" value="" style="endArrow=none;html=1;rounded=0;exitX=1;exitY=0.5;exitDx=0;exitDy=0;entryX=0;entryY=0.5;entryDx=0;entryDy=0;" edge="1" parent="1" source="k65Ih3bsVJZd8CG2GF2q-2" target="k65Ih3bsVJZd8CG2GF2q-3">
          <mxGeometry width="50" height="50" relative="1" as="geometry">
            <mxPoint x="390" y="260" as="sourcePoint" />
            <mxPoint x="440" y="210" as="targetPoint" />
          </mxGeometry>
        </mxCell>
        <mxCell id="k65Ih3bsVJZd8CG2GF2q-5" value="" style="endArrow=none;html=1;rounded=0;exitX=1;exitY=0.5;exitDx=0;exitDy=0;entryX=0;entryY=0.5;entryDx=0;entryDy=0;" edge="1" parent="1" source="k65Ih3bsVJZd8CG2GF2q-3" target="k65Ih3bsVJZd8CG2GF2q-1">
          <mxGeometry width="50" height="50" relative="1" as="geometry">
            <mxPoint x="390" y="260" as="sourcePoint" />
            <mxPoint x="440" y="210" as="targetPoint" />
          </mxGeometry>
        </mxCell>
        <mxCell id="k65Ih3bsVJZd8CG2GF2q-6" value="1" style="text;html=1;align=center;verticalAlign=middle;whiteSpace=wrap;rounded=0;" vertex="1" parent="1">
          <mxGeometry x="290" y="90" width="60" height="30" as="geometry" />
        </mxCell>
        <mxCell id="k65Ih3bsVJZd8CG2GF2q-7" value="N" style="text;html=1;align=center;verticalAlign=middle;whiteSpace=wrap;rounded=0;" vertex="1" parent="1">
          <mxGeometry x="450" y="90" width="60" height="30" as="geometry" />
        </mxCell>
        <mxCell id="k65Ih3bsVJZd8CG2GF2q-8" value="" style="endArrow=none;html=1;rounded=0;exitX=0.812;exitY=0.696;exitDx=0;exitDy=0;exitPerimeter=0;entryX=0;entryY=0.75;entryDx=0;entryDy=0;" edge="1" parent="1" source="k65Ih3bsVJZd8CG2GF2q-3" target="k65Ih3bsVJZd8CG2GF2q-1">
          <mxGeometry width="50" height="50" relative="1" as="geometry">
            <mxPoint x="460" y="190" as="sourcePoint" />
            <mxPoint x="510" y="140" as="targetPoint" />
          </mxGeometry>
        </mxCell>
        <mxCell id="k65Ih3bsVJZd8CG2GF2q-10" value="Atividade" style="rounded=0;whiteSpace=wrap;html=1;" vertex="1" parent="1">
          <mxGeometry x="200" y="270" width="80" height="40" as="geometry" />
        </mxCell>
        <mxCell id="k65Ih3bsVJZd8CG2GF2q-12" value="participa" style="rhombus;whiteSpace=wrap;html=1;" vertex="1" parent="1">
          <mxGeometry x="205" y="180" width="70" height="50" as="geometry" />
        </mxCell>
        <mxCell id="k65Ih3bsVJZd8CG2GF2q-13" value="" style="endArrow=none;html=1;rounded=0;entryX=0.5;entryY=1;entryDx=0;entryDy=0;exitX=0.5;exitY=0;exitDx=0;exitDy=0;" edge="1" parent="1" source="k65Ih3bsVJZd8CG2GF2q-12" target="k65Ih3bsVJZd8CG2GF2q-2">
          <mxGeometry width="50" height="50" relative="1" as="geometry">
            <mxPoint x="295" y="220" as="sourcePoint" />
            <mxPoint x="345" y="170" as="targetPoint" />
          </mxGeometry>
        </mxCell>
        <mxCell id="k65Ih3bsVJZd8CG2GF2q-14" value="" style="endArrow=none;html=1;rounded=0;entryX=0.5;entryY=1;entryDx=0;entryDy=0;exitX=0.5;exitY=0;exitDx=0;exitDy=0;" edge="1" parent="1" source="k65Ih3bsVJZd8CG2GF2q-10" target="k65Ih3bsVJZd8CG2GF2q-12">
          <mxGeometry width="50" height="50" relative="1" as="geometry">
            <mxPoint x="275" y="310" as="sourcePoint" />
            <mxPoint x="325" y="260" as="targetPoint" />
          </mxGeometry>
        </mxCell>
      </root>
    </mxGraphModel>
  </diagram>
</mxfile>
